<svg id="Layer_1" data-name="Layer 1" xmlns="http://www.w3.org/2000/svg" viewBox="0 0 150 30.81"><defs><style>.cls-1{fill:#ffde00;}.cls-2{fill:none;stroke:#000;stroke-linecap:round;stroke-miterlimit:10;}</style></defs><title>brewlabs-wrong-network-button</title><rect class="cls-1" width="150" height="30.81" rx="15.41"/><path d="M46.07,18.73,44,12.08h.79l1.71,5.59,1.79-5.59h.86l1.79,5.59,1.71-5.59h.79l-2.07,6.65h-.85l-1.8-5.58-1.8,5.58Z"/><path d="M54.35,18.73V12.08h3.18a2.3,2.3,0,0,1,1.63.56,2,2,0,0,1,.61,1.52,1.94,1.94,0,0,1-.24,1,1.69,1.69,0,0,1-.62.57,2.9,2.9,0,0,1-.75.29l1.75,2.68H59l-1.61-2.55H55.1v2.55Zm.75-3.26h2.3a2.64,2.64,0,0,0,.73-.11,1.39,1.39,0,0,0,.63-.4,1.17,1.17,0,0,0,.26-.8,1.28,1.28,0,0,0-.43-1,1.74,1.74,0,0,0-1.15-.37H55.1Z"/><path d="M64,18.81a3.38,3.38,0,0,1-1.37-.26,3,3,0,0,1-1.07-.73,3.36,3.36,0,0,1-.69-1.09,3.78,3.78,0,0,1,0-2.65A3.22,3.22,0,0,1,61.58,13a3,3,0,0,1,1.07-.74,3.77,3.77,0,0,1,2.75,0,3.11,3.11,0,0,1,1.07.74,3.22,3.22,0,0,1,.69,1.08,3.78,3.78,0,0,1,0,2.65,3.36,3.36,0,0,1-.69,1.09,3.09,3.09,0,0,1-1.07.73A3.4,3.4,0,0,1,64,18.81Zm0-.73a2.66,2.66,0,0,0,1.41-.36,2.38,2.38,0,0,0,.9-1,2.92,2.92,0,0,0,.32-1.35,2.87,2.87,0,0,0-.32-1.36,2.44,2.44,0,0,0-.9-1A2.66,2.66,0,0,0,64,12.73a2.62,2.62,0,0,0-1.39.36,2.4,2.4,0,0,0-.91,1,2.87,2.87,0,0,0-.32,1.36,2.92,2.92,0,0,0,.32,1.35,2.34,2.34,0,0,0,.91,1A2.62,2.62,0,0,0,64,18.08Z"/><path d="M68.61,18.73V12.08h.87l4.11,5.6v-5.6h.75v6.65h-.87l-4.11-5.61v5.61Z"/><path d="M78.81,18.81a3.28,3.28,0,0,1-1.75-.45,3.16,3.16,0,0,1-1.12-1.23,3.78,3.78,0,0,1-.39-1.72,3.66,3.66,0,0,1,.4-1.72,3.07,3.07,0,0,1,1.14-1.23A3.21,3.21,0,0,1,78.83,12a3.28,3.28,0,0,1,1.86.53,3.11,3.11,0,0,1,1.16,1.36H81a2.12,2.12,0,0,0-.84-.84,2.53,2.53,0,0,0-1.3-.32,2.59,2.59,0,0,0-1.39.36,2.42,2.42,0,0,0-.89,1,3,3,0,0,0-.31,1.36,3,3,0,0,0,.31,1.35,2.27,2.27,0,0,0,.88,1,2.53,2.53,0,0,0,1.38.36A2.64,2.64,0,0,0,80,17.82a2.18,2.18,0,0,0,.87-.75,2,2,0,0,0,.34-1.19H78.79V15.2h3.12v3.53h-.69V17.56a3,3,0,0,1-.54.61,2.71,2.71,0,0,1-.8.46A3,3,0,0,1,78.81,18.81Z"/><path d="M87.52,18.73V12.08h.87l4.11,5.6v-5.6h.76v6.65h-.88l-4.11-5.61v5.61Z"/><path d="M94.89,18.73V12.08h4.89v.72H95.64V15h3.7v.73h-3.7V18h4.14v.72Z"/><path d="M102.64,18.73V12.79h-2.32v-.71h5.4v.71H103.4v5.94Z"/><path d="M108,18.73,106,12.08h.8l1.7,5.59,1.79-5.59h.87l1.79,5.59,1.7-5.59h.8l-2.07,6.65h-.86l-1.8-5.58-1.8,5.58Z"/><path d="M119.14,18.81a3.4,3.4,0,0,1-1.38-.26,3.09,3.09,0,0,1-1.07-.73,3.36,3.36,0,0,1-.69-1.09,3.78,3.78,0,0,1,0-2.65,3.22,3.22,0,0,1,.69-1.08,3.11,3.11,0,0,1,1.07-.74,3.77,3.77,0,0,1,2.75,0,3,3,0,0,1,1.07.74,3.22,3.22,0,0,1,.69,1.08,3.78,3.78,0,0,1,0,2.65,3.36,3.36,0,0,1-.69,1.09,3,3,0,0,1-1.07.73A3.38,3.38,0,0,1,119.14,18.81Zm0-.73a2.63,2.63,0,0,0,1.4-.36,2.38,2.38,0,0,0,.9-1,2.92,2.92,0,0,0,.32-1.35,2.87,2.87,0,0,0-.32-1.36,2.44,2.44,0,0,0-.9-1,2.9,2.9,0,0,0-2.8,0,2.4,2.4,0,0,0-.91,1,2.87,2.87,0,0,0-.32,1.36,2.92,2.92,0,0,0,.32,1.35,2.34,2.34,0,0,0,.91,1A2.63,2.63,0,0,0,119.14,18.08Z"/><path d="M123.72,18.73V12.08h3.19a2.34,2.34,0,0,1,1.63.56,2,2,0,0,1,.61,1.52,1.94,1.94,0,0,1-.25,1,1.61,1.61,0,0,1-.62.57,2.84,2.84,0,0,1-.74.29l1.75,2.68h-.9l-1.61-2.55h-2.31v2.55Zm.75-3.26h2.3a2.71,2.71,0,0,0,.74-.11,1.45,1.45,0,0,0,.63-.4,1.16,1.16,0,0,0,.25-.8,1.25,1.25,0,0,0-.43-1,1.74,1.74,0,0,0-1.15-.37h-2.34Z"/><path d="M130.44,18.73V12.08h.76v3.47l3.69-3.47H136l-2.84,2.67,3,4h-.94l-2.61-3.46-1.37,1.28v2.18Z"/><path class="cls-2" d="M26.61,17.27c.55,2,1.17,3.64,2.21,3.64,2.82,0,2-4,5-4"/><path class="cls-2" d="M25.93,14.62c0,.11.05.21.08.32"/><path class="cls-2" d="M16.82,16.91c4,0,3.39-7,6.39-7,1,0,1.66,1.22,2.19,2.86"/><circle cx="14.49" cy="16.91" r="0.61"/><circle cx="35.71" cy="16.91" r="0.61"/></svg>