<?xml version="1.0" encoding="utf-8"?>
<!-- Generator: Adobe Illustrator 24.0.0, SVG Export Plug-In . SVG Version: 6.00 Build 0)  -->
<svg version="1.1" id="Layer_1" xmlns="http://www.w3.org/2000/svg" xmlns:xlink="http://www.w3.org/1999/xlink" x="0px" y="0px"
	 viewBox="0 0 150 30.8" style="enable-background:new 0 0 150 30.8;" xml:space="preserve">
<style type="text/css">
	.st0{fill:#DA1546;}
	.st1{fill:#FFFFFF;}
	.st2{fill:none;stroke:#FFFFFF;stroke-linecap:round;stroke-miterlimit:10;}
</style>
<title>brewlabs-wrong-network-button</title>
<path class="st0" d="M15.4,0h119.2c8.5,0,15.4,6.9,15.4,15.4l0,0c0,8.5-6.9,15.4-15.4,15.4H15.4C6.9,30.8,0,23.9,0,15.4l0,0
	C0,6.9,6.9,0,15.4,0z"/>
<path class="st1" d="M46.1,18.7L44,12.1h0.8l1.7,5.6l1.8-5.6h0.9l1.8,5.6l1.7-5.6h0.8l-2.1,6.6h-0.8l-1.8-5.6l-1.8,5.6H46.1z"/>
<path class="st1" d="M54.3,18.7v-6.6h3.2c0.6,0,1.2,0.2,1.6,0.6c0.4,0.4,0.6,0.9,0.6,1.5c0,0.3-0.1,0.7-0.2,1
	c-0.2,0.2-0.4,0.4-0.6,0.6c-0.2,0.1-0.5,0.2-0.8,0.3l1.8,2.7H59l-1.6-2.5h-2.3v2.5L54.3,18.7z M55.1,15.5h2.3c0.2,0,0.5,0,0.7-0.1
	c0.2-0.1,0.5-0.2,0.6-0.4c0.2-0.2,0.3-0.5,0.3-0.8c0-0.4-0.1-0.7-0.4-1c-0.3-0.3-0.7-0.4-1.2-0.4h-2.3V15.5z"/>
<path class="st1" d="M64,18.8c-0.5,0-0.9-0.1-1.4-0.3c-0.4-0.2-0.8-0.4-1.1-0.7c-0.3-0.3-0.5-0.7-0.7-1.1c-0.3-0.9-0.3-1.8,0-2.6
	c0.2-0.4,0.4-0.8,0.7-1.1c0.3-0.3,0.7-0.6,1.1-0.7c0.9-0.3,1.9-0.3,2.8,0c0.4,0.2,0.8,0.4,1.1,0.7c0.3,0.3,0.5,0.7,0.7,1.1
	c0.3,0.9,0.3,1.8,0,2.6c-0.2,0.4-0.4,0.8-0.7,1.1c-0.3,0.3-0.7,0.6-1.1,0.7C65,18.7,64.5,18.8,64,18.8z M64,18.1
	c0.5,0,1-0.1,1.4-0.4c0.4-0.2,0.7-0.6,0.9-1c0.2-0.4,0.3-0.9,0.3-1.4c0-0.5-0.1-0.9-0.3-1.4c-0.2-0.4-0.5-0.8-0.9-1
	c-0.4-0.2-0.9-0.3-1.4-0.3c-0.5,0-1,0.1-1.4,0.4c-0.4,0.2-0.7,0.6-0.9,1c-0.2,0.4-0.3,0.9-0.3,1.4c0,0.5,0.1,0.9,0.3,1.4
	c0.2,0.4,0.5,0.8,0.9,1C63,18,63.5,18.1,64,18.1z"/>
<path class="st1" d="M68.6,18.7v-6.6h0.9l4.1,5.6v-5.6h0.8v6.6h-0.9l-4.1-5.6v5.6H68.6z"/>
<path class="st1" d="M78.8,18.8c-0.6,0-1.2-0.1-1.8-0.5c-0.5-0.3-0.9-0.7-1.1-1.2c-0.3-0.5-0.4-1.1-0.4-1.7c0-0.6,0.1-1.2,0.4-1.7
	c0.3-0.5,0.7-0.9,1.1-1.2c0.5-0.3,1.1-0.5,1.7-0.5c0.7,0,1.3,0.2,1.9,0.5c0.5,0.3,0.9,0.8,1.2,1.4H81c-0.2-0.4-0.5-0.6-0.8-0.8
	c-0.4-0.2-0.8-0.3-1.3-0.3c-0.5,0-1,0.1-1.4,0.4c-0.4,0.2-0.7,0.6-0.9,1c-0.2,0.4-0.3,0.9-0.3,1.4c0,0.5,0.1,0.9,0.3,1.4
	c0.2,0.4,0.5,0.8,0.9,1c0.4,0.2,0.9,0.4,1.4,0.4c0.4,0,0.8-0.1,1.2-0.3c0.4-0.2,0.7-0.4,0.9-0.8c0.2-0.4,0.4-0.8,0.3-1.2h-2.4v-0.7
	h3.1v3.5h-0.7v-1.2c-0.2,0.2-0.3,0.4-0.5,0.6c-0.2,0.2-0.5,0.4-0.8,0.5C79.5,18.8,79.2,18.8,78.8,18.8z"/>
<path class="st1" d="M87.5,18.7v-6.6h0.9l4.1,5.6v-5.6h0.8v6.6h-0.9l-4.1-5.6v5.6H87.5z"/>
<path class="st1" d="M94.9,18.7v-6.6h4.9v0.7h-4.1V15h3.7v0.7h-3.7V18h4.1v0.7L94.9,18.7z"/>
<path class="st1" d="M102.6,18.7v-5.9h-2.3v-0.7h5.4v0.7h-2.3v5.9H102.6z"/>
<path class="st1" d="M108,18.7l-2-6.6h0.8l1.7,5.6l1.8-5.6h0.9l1.8,5.6l1.7-5.6h0.8l-2.1,6.6h-0.9l-1.8-5.6l-1.8,5.6H108z"/>
<path class="st1" d="M119.1,18.8c-0.5,0-0.9-0.1-1.4-0.3c-0.4-0.2-0.8-0.4-1.1-0.7c-0.3-0.3-0.5-0.7-0.7-1.1c-0.3-0.9-0.3-1.8,0-2.6
	c0.2-0.4,0.4-0.8,0.7-1.1c0.3-0.3,0.7-0.6,1.1-0.7c0.9-0.3,1.9-0.3,2.8,0c0.4,0.2,0.8,0.4,1.1,0.7c0.3,0.3,0.5,0.7,0.7,1.1
	c0.3,0.9,0.3,1.8,0,2.6c-0.2,0.4-0.4,0.8-0.7,1.1c-0.3,0.3-0.7,0.6-1.1,0.7C120.1,18.7,119.6,18.8,119.1,18.8z M119.1,18.1
	c0.5,0,1-0.1,1.4-0.4c0.4-0.2,0.7-0.6,0.9-1c0.2-0.4,0.3-0.9,0.3-1.4c0-0.5-0.1-0.9-0.3-1.4c-0.2-0.4-0.5-0.8-0.9-1
	c-0.9-0.5-1.9-0.5-2.8,0c-0.4,0.2-0.7,0.6-0.9,1c-0.2,0.4-0.3,0.9-0.3,1.4c0,0.5,0.1,0.9,0.3,1.4c0.2,0.4,0.5,0.8,0.9,1
	C118.2,18,118.6,18.1,119.1,18.1z"/>
<path class="st1" d="M123.7,18.7v-6.6h3.2c0.6,0,1.2,0.2,1.6,0.6c0.4,0.4,0.6,0.9,0.6,1.5c0,0.3-0.1,0.7-0.3,1
	c-0.2,0.2-0.4,0.4-0.6,0.6c-0.2,0.1-0.5,0.2-0.7,0.3l1.7,2.7h-0.9l-1.6-2.5h-2.3v2.5L123.7,18.7z M124.5,15.5h2.3
	c0.3,0,0.5,0,0.7-0.1c0.2-0.1,0.5-0.2,0.6-0.4c0.2-0.2,0.3-0.5,0.3-0.8c0-0.4-0.1-0.7-0.4-1c-0.3-0.3-0.7-0.4-1.2-0.4h-2.3V15.5z"/>
<path class="st1" d="M130.4,18.7v-6.6h0.8v3.5l3.7-3.5h1.1l-2.8,2.7l3,4h-0.9l-2.6-3.5l-1.4,1.3v2.2L130.4,18.7z"/>
<path class="st2" d="M26.6,17.3c0.5,2,1.2,3.6,2.2,3.6c2.8,0,2-4,5-4"/>
<path class="st2" d="M25.9,14.6c0,0.1,0,0.2,0.1,0.3"/>
<path class="st2" d="M16.8,16.9c4,0,3.4-7,6.4-7c1,0,1.7,1.2,2.2,2.9"/>
<circle class="st1" cx="14.5" cy="16.9" r="0.6"/>
<circle class="st1" cx="35.7" cy="16.9" r="0.6"/>
</svg>
