<svg id="Layer_1" data-name="Layer 1" xmlns="http://www.w3.org/2000/svg" viewBox="0 0 150 30.81"><defs><style>.cls-1{fill:#ffde00;}</style></defs><title>brewlabs-network-latency-button</title><rect class="cls-1" width="150" height="30.81" rx="15.41"/><path d="M39.23,18.87v-6.6h.87l4.07,5.56V12.27h.75v6.6h-.87L40,13.3v5.57Z"/><path d="M46.54,18.87v-6.6h4.85V13h-4.1v2.22H51v.72H47.29v2.23h4.1v.71Z"/><path d="M54.23,18.87V13h-2.3v-.71h5.36V13H55v5.89Z"/><path d="M59.57,18.87l-2.06-6.6h.79L60,17.82l1.77-5.55h.86l1.77,5.55,1.7-5.55h.79l-2.06,6.6H64L62.2,13.33l-1.78,5.54Z"/><path d="M70.6,19a3.38,3.38,0,0,1-1.37-.26A3,3,0,0,1,68.17,18a3.18,3.18,0,0,1-.68-1.09,3.7,3.7,0,0,1,0-2.62,3,3,0,0,1,.68-1.08,3.19,3.19,0,0,1,1.06-.73,3.56,3.56,0,0,1,1.37-.26,3.51,3.51,0,0,1,1.36.26,3.19,3.19,0,0,1,1.06.73,3.22,3.22,0,0,1,.69,1.08,3.7,3.7,0,0,1,0,2.62A3.36,3.36,0,0,1,73,18a3,3,0,0,1-1.06.72A3.33,3.33,0,0,1,70.6,19Zm0-.72A2.62,2.62,0,0,0,72,17.87a2.26,2.26,0,0,0,.89-.95,2.89,2.89,0,0,0,.32-1.35,2.85,2.85,0,0,0-.32-1.34,2.26,2.26,0,0,0-.89-1,2.86,2.86,0,0,0-2.78,0,2.35,2.35,0,0,0-.9,1A2.85,2.85,0,0,0,68,15.57a2.89,2.89,0,0,0,.32,1.35,2.35,2.35,0,0,0,.9.95A2.59,2.59,0,0,0,70.6,18.23Z"/><path d="M75.14,18.87v-6.6H78.3a2.29,2.29,0,0,1,1.62.56,1.94,1.94,0,0,1,.61,1.51,1.78,1.78,0,0,1-.25,1,1.54,1.54,0,0,1-.61.58,3.2,3.2,0,0,1-.74.28l1.74,2.66h-.89l-1.6-2.53H75.89v2.53Zm.75-3.24h2.28a2.31,2.31,0,0,0,.73-.11,1.3,1.3,0,0,0,.63-.39,1.14,1.14,0,0,0,.25-.79,1.25,1.25,0,0,0-.43-1A1.69,1.69,0,0,0,78.21,13H75.89Z"/><path d="M81.81,18.87v-6.6h.75v3.44l3.67-3.44h1.06l-2.81,2.66,3,3.94h-.94l-2.58-3.44-1.37,1.28v2.16Z"/><path d="M92.45,18.87v-6.6h.75v5.89h3.6v.71Z"/><path d="M97,18.87l2.8-6.6h.94l2.8,6.6h-.83L101.89,17H98.62l-.8,1.91Zm1.92-2.6h2.7l-1.35-3.22Z"/><path d="M105.41,18.87V13h-2.3v-.71h5.36V13h-2.31v5.89Z"/><path d="M109.41,18.87v-6.6h4.86V13h-4.11v2.22h3.67v.72h-3.67v2.23h4.11v.71Z"/><path d="M115.47,18.87v-6.6h.87l4.08,5.56V12.27h.75v6.6h-.87l-4.08-5.57v5.57Z"/><path d="M125.55,19a3.15,3.15,0,0,1-1.7-.45,3,3,0,0,1-1.1-1.22,3.92,3.92,0,0,1,0-3.41,3,3,0,0,1,1.1-1.22,3.07,3.07,0,0,1,1.7-.46,3.25,3.25,0,0,1,1.35.27,3,3,0,0,1,1,.72,3,3,0,0,1,.63,1.07h-.79a2.1,2.1,0,0,0-.79-1,2.38,2.38,0,0,0-1.35-.36,2.5,2.5,0,0,0-1.37.36,2.23,2.23,0,0,0-.85,1,3.1,3.1,0,0,0-.29,1.34,3.14,3.14,0,0,0,.29,1.35,2.23,2.23,0,0,0,.85.95,2.5,2.5,0,0,0,1.37.36,2.38,2.38,0,0,0,1.35-.36,2.1,2.1,0,0,0,.79-1h.79a3.08,3.08,0,0,1-.63,1.06,3,3,0,0,1-1,.73A3.25,3.25,0,0,1,125.55,19Z"/><path d="M131.55,18.87V16.26l-2.77-4h.9l2.24,3.21,2.23-3.21h.91l-2.76,4v2.61Z"/><path d="M14.94,14.28c0-.27.07-.55.12-.83a7.5,7.5,0,0,1,2.14-4,.44.44,0,0,1,.63,0,.46.46,0,0,1,0,.64,7.52,7.52,0,0,0-1.14,1.5,6.3,6.3,0,0,0,.52,7c.18.24.39.46.59.68a.47.47,0,0,1,0,.68.46.46,0,0,1-.67,0A7.48,7.48,0,0,1,15,15.75c0-.19,0-.38-.08-.57Z"/><path d="M23.09,16.21v5a.83.83,0,0,1,0,.22.42.42,0,0,1-.47.32.44.44,0,0,1-.4-.42.75.75,0,0,1,0-.15c0-1.61,0-3.21,0-4.82a.23.23,0,0,0-.17-.26,1.64,1.64,0,0,1-1-1.87,1.65,1.65,0,1,1,2.22,1.88Zm-.46-.85a.74.74,0,0,0,.76-.74.75.75,0,0,0-1.5,0A.74.74,0,0,0,22.63,15.36Z"/><path d="M29.41,14.74a6.46,6.46,0,0,0-1.78-4.43l-.18-.18a.46.46,0,0,1,0-.65.45.45,0,0,1,.65,0,7.35,7.35,0,0,1,2,3.66,7.19,7.19,0,0,1-2,6.8.45.45,0,1,1-.64-.63A6.89,6.89,0,0,0,29,17,6.29,6.29,0,0,0,29.41,14.74Z"/><path d="M17,14.73a5.42,5.42,0,0,1,1.56-3.84.45.45,0,1,1,.66.61,4.41,4.41,0,0,0-1.27,2.55,4.51,4.51,0,0,0,1.2,3.83c.12.14.25.27.22.47a.45.45,0,0,1-.3.38.43.43,0,0,1-.48-.13,5.4,5.4,0,0,1-1.31-2.11A5.23,5.23,0,0,1,17,14.73Z"/><path d="M28.33,14.74a5.48,5.48,0,0,1-1.56,3.83.45.45,0,1,1-.65-.62,4.53,4.53,0,0,0,1.29-3.59,4.4,4.4,0,0,0-1.25-2.79.57.57,0,0,1-.21-.45.43.43,0,0,1,.3-.38.42.42,0,0,1,.49.13,5.33,5.33,0,0,1,1.09,1.57A5.5,5.5,0,0,1,28.33,14.74Z"/><path d="M18.86,14.73a3.57,3.57,0,0,1,1-2.48.46.46,0,0,1,.67-.05.45.45,0,0,1,0,.66,2.67,2.67,0,0,0,0,3.74.46.46,0,0,1,0,.67.45.45,0,0,1-.66-.05A3.58,3.58,0,0,1,18.86,14.73Z"/><path d="M26.41,14.73a3.57,3.57,0,0,1-1,2.49.45.45,0,1,1-.65-.63,2.66,2.66,0,0,0,0-3.72.45.45,0,1,1,.66-.61A3.56,3.56,0,0,1,26.41,14.73Z"/></svg>