<?xml version="1.0" encoding="utf-8"?>
<!-- Generator: Adobe Illustrator 24.0.0, SVG Export Plug-In . SVG Version: 6.00 Build 0)  -->
<svg version="1.1" id="Layer_1" xmlns="http://www.w3.org/2000/svg" xmlns:xlink="http://www.w3.org/1999/xlink" x="0px" y="0px"
	 viewBox="0 0 150 30.8" style="enable-background:new 0 0 150 30.8;" xml:space="preserve">
<style type="text/css">
	.st0{fill:#DA1546;}
	.st1{fill:#FFFFFF;}
</style>
<title>brewlabs-network-latency-button</title>
<path class="st0" d="M15.4,0h119.2c8.5,0,15.4,6.9,15.4,15.4l0,0c0,8.5-6.9,15.4-15.4,15.4H15.4C6.9,30.8,0,23.9,0,15.4l0,0
	C0,6.9,6.9,0,15.4,0z"/>
<path class="st1" d="M39.2,18.9v-6.6h0.9l4.1,5.6v-5.6H45v6.6h-1l-4-5.6v5.6H39.2z"/>
<path class="st1" d="M46.5,18.9v-6.6h4.8V13h-4.1v2.2H51v0.7h-3.7v2.2h4.1v0.7L46.5,18.9z"/>
<path class="st1" d="M54.2,18.9V13h-2.3v-0.7h5.4V13H55v5.9H54.2z"/>
<path class="st1" d="M59.6,18.9l-2.1-6.6h0.8l1.7,5.5l1.8-5.6h0.9l1.8,5.6l1.7-5.6H67l-2.1,6.6H64l-1.8-5.5l-1.8,5.5L59.6,18.9z"/>
<path class="st1" d="M70.6,19c-0.5,0-0.9-0.1-1.4-0.3c-0.4-0.2-0.8-0.4-1.1-0.7c-0.3-0.3-0.5-0.7-0.7-1.1c-0.3-0.8-0.3-1.8,0-2.6
	c0.1-0.4,0.4-0.8,0.7-1.1c0.3-0.3,0.7-0.6,1.1-0.7c0.4-0.2,0.9-0.3,1.4-0.3s0.9,0.1,1.4,0.3c0.4,0.2,0.8,0.4,1.1,0.7
	c0.3,0.3,0.5,0.7,0.7,1.1c0.3,0.8,0.3,1.8,0,2.6c-0.2,0.4-0.4,0.8-0.7,1.1c-0.3,0.3-0.7,0.6-1.1,0.7C71.5,18.9,71.1,19,70.6,19z
	 M70.6,18.3c0.5,0,1-0.1,1.4-0.4c0.4-0.2,0.7-0.6,0.9-1c0.2-0.4,0.3-0.9,0.3-1.4s-0.1-0.9-0.3-1.3c-0.2-0.4-0.5-0.8-0.9-1
	c-0.9-0.5-1.9-0.5-2.8,0c-0.4,0.2-0.7,0.6-0.9,1c-0.2,0.4-0.3,0.9-0.3,1.3c0,0.5,0.1,0.9,0.3,1.4c0.2,0.4,0.5,0.7,0.9,1
	C69.6,18.1,70.1,18.2,70.6,18.3L70.6,18.3z"/>
<path class="st1" d="M75.1,18.9v-6.6h3.2c0.6,0,1.2,0.2,1.6,0.6c0.4,0.4,0.6,0.9,0.6,1.5c0,0.4-0.1,0.7-0.3,1
	c-0.1,0.2-0.4,0.4-0.6,0.6c-0.2,0.1-0.5,0.2-0.7,0.3l1.7,2.7h-0.9l-1.6-2.5h-2.3V19L75.1,18.9z M75.9,15.6h2.3c0.2,0,0.5,0,0.7-0.1
	s0.5-0.2,0.6-0.4c0.2-0.2,0.3-0.5,0.3-0.8c0-0.4-0.1-0.7-0.4-1C79,13.1,78.6,13,78.2,13h-2.3C75.9,13,75.9,15.6,75.9,15.6z"/>
<path class="st1" d="M81.8,18.9v-6.6h0.8v3.4l3.7-3.4h1.1L84.6,15l3,3.9h-0.9L84,15.4l-1.4,1.3v2.2H81.8z"/>
<path class="st1" d="M92.4,18.9v-6.6h0.8v5.9h3.6v0.7H92.4z"/>
<path class="st1" d="M97,18.9l2.8-6.6h0.9l2.8,6.6h-0.8l-0.8-1.9h-3.3l-0.8,1.9H97z M98.9,16.3h2.7l-1.3-3.2L98.9,16.3z"/>
<path class="st1" d="M105.4,18.9V13h-2.3v-0.7h5.4V13h-2.3v5.9H105.4z"/>
<path class="st1" d="M109.4,18.9v-6.6h4.9V13h-4.1v2.2h3.7v0.7h-3.7v2.2h4.1v0.7L109.4,18.9z"/>
<path class="st1" d="M115.5,18.9v-6.6h0.9l4.1,5.6v-5.6h0.8v6.6h-0.9l-4.1-5.6v5.6H115.5z"/>
<path class="st1" d="M125.6,19c-0.6,0-1.2-0.1-1.7-0.5c-0.5-0.3-0.9-0.7-1.1-1.2c-0.5-1.1-0.5-2.3,0-3.4c0.2-0.5,0.6-0.9,1.1-1.2
	s1.1-0.5,1.7-0.5c0.5,0,0.9,0.1,1.3,0.3s0.7,0.4,1,0.7c0.3,0.3,0.5,0.7,0.6,1.1h-0.8c-0.2-0.4-0.4-0.8-0.8-1
	c-0.4-0.3-0.9-0.4-1.3-0.4c-0.5,0-1,0.1-1.4,0.4c-0.4,0.2-0.7,0.6-0.8,1c-0.2,0.4-0.3,0.9-0.3,1.3c0,0.5,0.1,0.9,0.3,1.3
	c0.2,0.4,0.5,0.7,0.8,1c0.4,0.2,0.9,0.4,1.4,0.4s0.9-0.1,1.3-0.4c0.4-0.2,0.6-0.6,0.8-1h0.8c-0.1,0.4-0.4,0.8-0.6,1.1
	c-0.3,0.3-0.6,0.6-1,0.7C126.5,18.9,126,19,125.6,19z"/>
<path class="st1" d="M131.6,18.9v-2.6l-2.8-4h0.9l2.2,3.2l2.2-3.2h0.9l-2.8,4v2.6H131.6z"/>
<path class="st1" d="M14.9,14.3c0-0.3,0.1-0.6,0.1-0.8c0.3-1.5,1-2.9,2.1-4c0.2-0.2,0.4-0.2,0.6,0l0,0c0.2,0.2,0.2,0.5,0,0.6
	c-0.4,0.5-0.8,1-1.1,1.5c-1.3,2.2-1.1,5,0.5,7c0.2,0.2,0.4,0.5,0.6,0.7s0.2,0.5,0,0.7l0,0c-0.2,0.2-0.5,0.2-0.7,0l0,0
	c-1.1-1.1-1.9-2.6-2.1-4.2c0-0.2,0-0.4-0.1-0.6L14.9,14.3z"/>
<path class="st1" d="M23.1,16.2v5c0,0.1,0,0.1,0,0.2c0,0.2-0.3,0.4-0.5,0.3c-0.2,0-0.4-0.2-0.4-0.4v-0.1c0-1.6,0-3.2,0-4.8
	c0-0.1-0.1-0.2-0.2-0.3c-0.7-0.3-1.2-1.1-1-1.9c0.2-0.9,1.1-1.5,2-1.3s1.5,1.1,1.3,2c-0.1,0.5-0.5,1-1,1.2L23.1,16.2z M22.6,15.4
	c0.4,0,0.7-0.3,0.8-0.7l0,0c0-0.4-0.3-0.8-0.8-0.8s-0.8,0.3-0.8,0.8C21.9,15,22.2,15.4,22.6,15.4z"/>
<path class="st1" d="M29.4,14.7c0-1.6-0.6-3.2-1.8-4.4l-0.2-0.2c-0.2-0.2-0.2-0.5,0-0.6c0.2-0.2,0.5-0.2,0.6,0l0,0
	c1,1,1.7,2.3,2,3.7c0.6,2.5-0.2,5-2,6.8c-0.2,0.2-0.4,0.2-0.6,0s-0.2-0.4,0-0.6l0,0c0.7-0.7,1.2-1.4,1.5-2.3
	C29.3,16.3,29.4,15.5,29.4,14.7z"/>
<path class="st1" d="M17,14.7c0-1.4,0.6-2.8,1.6-3.8c0.2-0.2,0.4-0.2,0.6-0.1s0.2,0.4,0.1,0.6l0,0C18.6,12.1,18.2,13,18,14
	c-0.2,1.4,0.2,2.8,1.2,3.8c0.1,0.1,0.3,0.3,0.2,0.5c0,0.2-0.1,0.3-0.3,0.4c-0.2,0.1-0.4,0-0.5-0.1c-0.6-0.6-1-1.3-1.3-2.1
	C17.1,15.9,17,15.3,17,14.7z"/>
<path class="st1" d="M28.3,14.7c0,1.4-0.6,2.8-1.6,3.8c-0.2,0.2-0.4,0.2-0.6,0.1c-0.2-0.2-0.2-0.4-0.1-0.6l0,0
	c0.9-0.9,1.4-2.3,1.3-3.6c-0.1-1-0.5-2-1.3-2.8c-0.1-0.1-0.2-0.3-0.2-0.4c0-0.2,0.1-0.3,0.3-0.4c0.2-0.1,0.4,0,0.5,0.1
	c0.5,0.5,0.8,1,1.1,1.6C28.2,13.2,28.3,13.9,28.3,14.7z"/>
<path class="st1" d="M18.9,14.7c0-0.9,0.4-1.8,1-2.5c0.2-0.2,0.4-0.2,0.6-0.1l0,0c0.2,0.2,0.2,0.5,0,0.6l0,0c-1,1-1,2.7,0,3.7
	c0.2,0.2,0.2,0.5,0,0.7l0,0c-0.2,0.2-0.5,0.2-0.6,0l0,0C19.2,16.6,18.9,15.7,18.9,14.7z"/>
<path class="st1" d="M26.4,14.7c0,0.9-0.4,1.8-1,2.5c-0.2,0.2-0.5,0.2-0.6,0s-0.2-0.5,0-0.6c1-1,1-2.7,0-3.7c-0.2-0.2-0.2-0.5,0-0.6
	c0.2-0.2,0.5-0.2,0.6,0l0,0C26.1,12.9,26.4,13.8,26.4,14.7z"/>
</svg>
