<?xml version="1.0" encoding="utf-8"?>
<!-- Generator: Adobe Illustrator 24.0.0, SVG Export Plug-In . SVG Version: 6.00 Build 0)  -->
<svg version="1.1" id="Layer_1" xmlns="http://www.w3.org/2000/svg" xmlns:xlink="http://www.w3.org/1999/xlink" x="0px" y="0px"
	 viewBox="0 0 550 550" style="enable-background:new 0 0 550 550;" xml:space="preserve">
<g>
	<circle cx="119.2" cy="283.5" r="9"/>
	<circle cx="171.9" cy="318.5" r="9"/>
	<circle cx="225" cy="301.6" r="9"/>
	<ellipse transform="matrix(0.9732 -0.2298 0.2298 0.9732 -67.5479 82.6623)" cx="321.2" cy="331.4" rx="6.6" ry="6.6"/>
	<ellipse transform="matrix(0.7071 -0.7071 0.7071 0.7071 -119.3191 344.1381)" cx="355.8" cy="316.1" rx="6.6" ry="6.6"/>
	<path d="M504.4,323.7l-43.9-68.4v-38.6c6-2.1,10.4-7.9,10.4-14.7c0-8.6-7-15.6-15.6-15.6h-42.1c-8.6,0-15.6,7-15.6,15.6
		c0,6.7,4.3,12.5,10.3,14.7v38.6L392.7,279l-35.3-55v-49.8c7.8-2.6,13.4-9.9,13.3-18.6c0-10.8-8.8-19.6-19.6-19.6h-54
		c-10.8,0-19.6,8.8-19.6,19.6c0,8.6,5.6,15.9,13.3,18.5V224l-18.1,28.1l-51.8-80.6v-35.2c0.1-0.4,0.1-0.7,0.1-1.1s0-0.8-0.1-1.1
		v-31.4c10.7-3.4,18.4-13.4,18.4-25.2c0-14.6-11.9-26.4-26.4-26.4h-74c-14.6,0-26.4,11.8-26.4,26.4c0,11.7,7.7,21.6,18.2,25.1v68.9
		L53.3,292c-4.9,7.8-7.6,16.6-7.8,25.6c-0.1,8.4,2,16.9,6.1,24.4c4.1,7.5,10.1,13.9,17.3,18.3c7.6,4.7,16.5,7.2,25.7,7.2h162.6
		c1.4,0,2.8-0.1,4.1-0.2c1.1,0.1,2.3,0.2,3.5,0.2h118.6c0.8,0,1.6,0,2.5-0.1c0.7,0.1,1.4,0.1,2.1,0.1h92.5
		c10.5,0,19.9-5.6,24.9-14.8C510.5,343.5,510.1,332.6,504.4,323.7z M413.2,195.4h42.1c3.6,0,6.6,3,6.6,6.6c0,3.6-3,6.6-6.6,6.6
		h-42.1c-3.6,0-6.6-3-6.6-6.6C406.6,198.4,409.6,195.4,413.2,195.4z M416.3,259c0.5-0.7,0.7-1.5,0.7-2.4v-39h34.5v12.7h-7
		c-2.5,0-4.5,2-4.5,4.5s2,4.5,4.5,4.5h7V252h-7c-2.5,0-4.5,2-4.5,4.5s2,4.5,4.5,4.5h9l24.1,37.5c-2.4,2.5-8.3,6.5-20.4,6.5
		c-9.8,0-18.5-5.7-26.8-11.3c-7.7-5.1-15-10-22.9-10c-2.8,0-5.3,0.3-7.5,0.8L416.3,259z M383.4,356.5h-3.8c-3.6-1.7-6.6-4.5-8.6-8.2
		c-3.5-6.3-3.2-13.7,0.7-19.8l18.8-29.2c0.3-0.3,0.8-0.9,1.6-1.5l12.7,19.7c5.1,7.9,5.4,17.5,0.9,25.8S392.8,356.5,383.4,356.5z
		 M242.6,343.3c-4.5-8.2-4.2-17.9,0.9-25.8l23.8-37c0.4-0.5,2-2.2,4.8-4.1l14.8,23c7.1,11,7.6,24.5,1.3,36s-17.9,18.4-31,18.4h-3.8
		C248.9,351.5,245.1,347.9,242.6,343.3z M300.1,342c4.1-7.5,6.2-16,6.1-24.4c-0.1-9-2.8-17.9-7.8-25.6l-13.1-20.3
		c1.4-0.2,2.9-0.3,4.5-0.3c6.8,0,14.8,5.4,23.2,11c11.5,7.7,24.6,16.4,40.6,16.4c17.2,0,27.1-5.5,32.6-10.1l0.2,0.3L364,323.7
		c-5.7,8.9-6.1,19.7-1,29c0.7,1.4,1.6,2.6,2.5,3.8h-77.4C292.9,352.5,297,347.6,300.1,342z M297.1,146.8h54c4.8,0,8.8,3.9,8.8,8.8
		c0,4.8-3.9,8.8-8.8,8.8h-54c-4.8,0-8.8-3.9-8.8-8.8C288.3,150.8,292.2,146.8,297.1,146.8z M300.8,228.4c0.6-0.8,0.9-1.9,0.9-2.9
		v-50.3h44.8v17h-9.3c-3,0-5.4,2.4-5.4,5.4s2.4,5.4,5.4,5.4h9.3v17.1h-9.3c-3,0-5.4,2.4-5.4,5.4s2.4,5.4,5.4,5.4H349l31.2,48.5
		c-3.1,3.2-10.7,8.6-26.6,8.6c-12.7,0-23.9-7.4-34.6-14.6c-9.9-6.6-19.2-12.8-29.2-12.8c-3.9,0-7.3,0.4-10.5,1.2L300.8,228.4z
		 M126.3,77.5c0-6.9,5.6-12.6,12.6-12.6h74c6.9,0,12.6,5.7,12.6,12.6s-5.6,12.6-12.6,12.6h-74C132,90.1,126.3,84.4,126.3,77.5z
		 M143.5,177.2c0.7-1.1,1.1-2.4,1.1-3.7v-69.6h62.7v24.4h-13.5c-3.8,0-6.9,3.1-6.9,6.9s3.1,6.9,6.9,6.9h13.5v24.4h-13.5
		c-3.8,0-6.9,3.1-6.9,6.9s3.1,6.9,6.9,6.9h16.6l43.1,67c-1.2,1.3-3.1,3-5.7,4.7c-7.8,5.1-18.7,7.7-31.6,7.7
		c-17.6,0-32.9-10.2-47.7-20.1c-13.4-8.9-26.1-17.4-39.7-17.4c-5.8,0-10.9,0.7-15.4,1.9L143.5,177.2z M63.7,335.4
		c-6.3-11.5-5.8-25,1.3-36L98,248c2.5-2.8,12.4-12.1,30.9-12.1c9.5,0,20.5,7.3,32.1,15.1c15.7,10.5,33.6,22.4,55.3,22.4
		c16.4,0,29.9-3.6,40-10.6c1.8-1.3,3.4-2.5,4.7-3.7l3.6,5.7l-5.5,8.6c-0.3,0.4-0.5,0.7-0.6,0.7c-0.3,0.4-0.5,0.8-0.7,1.2l-23.4,36.5
		c-7.2,11.3-7.7,25.1-1.3,36.9c1,1.8,2.1,3.5,3.4,5.1H94.7C81.6,353.8,70,346.9,63.7,335.4z M497.6,348.3
		c-3.5,6.3-9.9,10.1-17.1,10.1h-73.1c3-2.7,5.6-6,7.7-9.7c6.5-11.8,6-25.6-1.3-36.9l-12-18.6c1.7-0.4,3.6-0.6,5.7-0.6
		c5.2,0,11.4,4.1,17.9,8.5c9,6.1,19.3,12.9,31.8,12.9c13.2,0,21-4.2,25.4-7.8l14.3,22.3C500.8,334.5,501.1,342,497.6,348.3z"/>
	<ellipse transform="matrix(0.7071 -0.7071 0.7071 0.7071 -113.1793 404.7609)" cx="432" cy="339" rx="5.1" ry="5.1"/>
	<ellipse transform="matrix(0.9732 -0.2298 0.2298 0.9732 -63.3165 115.0042)" cx="462.2" cy="329.4" rx="5.1" ry="5.1"/>
</g>
<g>
	<g>
		<path d="M45.6,458.2v-58.4h26.2c4.6,0,8.2,0.8,10.9,2.4c2.7,1.6,4.6,3.6,5.8,6c1.2,2.4,1.8,4.8,1.8,7.1c0,3.8-0.8,6.7-2.4,8.7
			s-3.4,3.5-5.5,4.5c1.6,0.5,3.3,1.4,5,2.5s3.1,2.7,4.2,4.6s1.7,4.4,1.7,7.3c0,4.4-1.7,8-5,10.9s-8.3,4.4-15,4.4H45.6z M52.2,425.9
			h19.6c2.1,0,4-0.4,5.8-1.1s3.2-1.8,4.4-3.3c1.1-1.5,1.7-3.4,1.7-5.8c0-1.6-0.4-3.2-1.1-4.7s-1.9-2.7-3.5-3.6s-3.8-1.4-6.5-1.4
			H52.2V425.9z M52.2,452H74c4,0,7.1-0.8,9.3-2.5c2.2-1.7,3.3-4,3.3-7.1c0-2.8-1.1-5.2-3.2-7.3c-2.1-2.1-5.5-3.1-10.1-3.1H52.2V452z
			"/>
		<path d="M104,458.2v-58.4h28c6,0,10.8,1.6,14.3,4.9c3.6,3.3,5.3,7.7,5.3,13.3c0,3.8-0.7,6.8-2.2,9c-1.4,2.2-3.3,3.9-5.4,5.1
			c-2.2,1.1-4.4,2-6.5,2.5l15.4,23.6H145l-14.1-22.4h-20.3v22.4H104z M110.6,429.6h20.2c2.1,0,4.3-0.3,6.4-1c2.2-0.6,4-1.8,5.5-3.5
			s2.2-4,2.2-7c0-3.7-1.3-6.6-3.8-8.8c-2.5-2.1-5.9-3.2-10.1-3.2h-20.6v23.5H110.6z"/>
		<path d="M163,458.2v-58.4h43v6.4h-36.3v19.6h32.5v6.4h-32.5v19.7H206v6.4h-43V458.2z"/>
		<path d="M228.4,458.2l-18.2-58.4h7l15,49.1l15.7-49.1h7.6l15.7,49.1l15-49.1h7L275,458.2h-7.5l-15.8-49.1l-15.8,49.1H228.4z"/>
		<path d="M301.1,458.2v-58.4h6.6v52.1h31.8v6.4h-38.4V458.2z"/>
		<path d="M341.3,458.2l24.8-58.4h8.3l24.8,58.4h-7.3l-7.1-16.9h-28.9l-7.1,16.9H341.3z M358.3,435.2h23.8l-11.9-28.5L358.3,435.2z"
			/>
		<path d="M406.6,458.2v-58.4h26.2c4.6,0,8.2,0.8,10.9,2.4c2.7,1.6,4.6,3.6,5.8,6c1.2,2.4,1.8,4.8,1.8,7.1c0,3.8-0.8,6.7-2.4,8.7
			s-3.4,3.5-5.5,4.5c1.6,0.5,3.3,1.4,5,2.5s3.1,2.7,4.2,4.6s1.7,4.4,1.7,7.3c0,4.4-1.7,8-5,10.9s-8.3,4.4-15,4.4H406.6z
			 M413.2,425.9h19.6c2.1,0,4-0.4,5.8-1.1s3.2-1.8,4.4-3.3c1.1-1.5,1.7-3.4,1.7-5.8c0-1.6-0.4-3.2-1.1-4.7s-1.9-2.7-3.5-3.6
			s-3.8-1.4-6.5-1.4h-20.3v19.9H413.2z M413.2,452H435c4,0,7.1-0.8,9.3-2.5c2.2-1.7,3.3-4,3.3-7.1c0-2.8-1.1-5.2-3.2-7.3
			c-2.1-2.1-5.5-3.1-10.1-3.1h-21.1L413.2,452L413.2,452z"/>
		<path d="M485.9,458.9c-5.8,0-10.4-0.8-14-2.3c-3.6-1.6-6.3-3.7-8.1-6.5c-1.8-2.8-2.8-5.9-3.1-9.4h6.9c0.2,2.8,1.1,5.1,2.8,6.8
			c1.7,1.7,4,3,6.7,3.8c2.8,0.8,5.9,1.2,9.2,1.2c4.9,0,8.9-0.9,11.7-2.6c2.9-1.7,4.3-4.3,4.3-7.7c0-2.1-0.7-3.7-2.2-5
			c-1.4-1.3-3.4-2.3-5.7-3.1c-2.4-0.8-5-1.6-7.8-2.2c-2.8-0.7-5.7-1.4-8.5-2.2c-2.9-0.8-5.5-1.7-7.9-2.9c-2.4-1.2-4.3-2.7-5.7-4.5
			c-1.4-1.9-2.2-4.2-2.2-7.1c0-4.8,1.8-8.6,5.5-11.6s9.2-4.5,16.5-4.5c5.2,0,9.4,0.8,12.8,2.3c3.4,1.6,5.9,3.6,7.5,6.1
			c1.7,2.5,2.6,5.3,2.8,8.2h-6.8c-0.4-2.9-1.8-5.4-4.4-7.5c-2.6-2-6.6-3-11.9-3c-3.3,0-6,0.3-8,1c-2.1,0.6-3.6,1.5-4.7,2.5
			s-1.8,2.1-2.2,3.2c-0.4,1.1-0.6,2.2-0.6,3.2c0,1.9,0.7,3.5,2.2,4.7c1.4,1.2,3.4,2.2,5.7,3c2.4,0.8,5,1.5,7.9,2.2
			c2.9,0.6,5.7,1.4,8.6,2.2c2.9,0.8,5.5,1.8,7.9,3s4.3,2.7,5.7,4.6c1.4,1.9,2.2,4.3,2.2,7.2c0,5.4-2.1,9.6-6.2,12.5
			C498.7,457.5,493,458.9,485.9,458.9z"/>
	</g>
	<g>
		<path d="M45.6,492.8v-19h2.1v19H45.6z"/>
		<path d="M51.9,492.8v-14.3H54v2.2c0.5-0.7,1.1-1.3,1.9-1.7c0.7-0.5,1.7-0.7,2.9-0.7c1,0,1.9,0.2,2.8,0.7c0.9,0.5,1.6,1.2,2.1,2.1
			c0.5,0.9,0.8,2.1,0.8,3.4v8.3h-2.1v-8.3c0-1.3-0.4-2.3-1.1-3.1c-0.7-0.8-1.7-1.2-2.9-1.2c-0.8,0-1.5,0.2-2.2,0.5
			c-0.6,0.4-1.2,0.9-1.6,1.5c-0.4,0.7-0.6,1.4-0.6,2.3v8.3L51.9,492.8L51.9,492.8z"/>
		<path d="M69.1,492.8v-12.4h-2.5v-1.9h2.5v-1.3c0-1.6,0.5-2.7,1.4-3.5s2.2-1.2,3.9-1.2h0.2v2h-0.3c-1,0-1.7,0.2-2.3,0.7
			c-0.5,0.4-0.8,1.2-0.8,2.2v1.1h3.3v1.9h-3.3v12.4L69.1,492.8L69.1,492.8z"/>
		<path d="M82.9,493c-1.5,0-2.7-0.3-3.8-1c-1.1-0.7-1.9-1.6-2.5-2.7s-0.9-2.4-0.9-3.7c0-1.4,0.3-2.6,0.9-3.7s1.4-2,2.5-2.7
			s2.3-1,3.8-1s2.7,0.3,3.8,1c1.1,0.7,1.9,1.5,2.5,2.7c0.6,1.1,0.9,2.4,0.9,3.7c0,1.4-0.3,2.6-0.9,3.7s-1.4,2-2.5,2.7
			C85.6,492.7,84.3,493,82.9,493z M82.9,491c1.1,0,2-0.2,2.7-0.7s1.3-1.2,1.7-2c0.4-0.8,0.6-1.7,0.6-2.7s-0.2-1.9-0.6-2.7
			c-0.4-0.8-0.9-1.5-1.7-2s-1.6-0.7-2.7-0.7s-1.9,0.2-2.7,0.7c-0.7,0.5-1.3,1.2-1.7,2c-0.4,0.8-0.6,1.7-0.6,2.7s0.2,1.9,0.6,2.7
			c0.4,0.8,0.9,1.5,1.7,2C80.9,490.8,81.8,491,82.9,491z"/>
		<path d="M92.8,492.8v-14.3H95v3.5c0.1-0.2,0.2-0.6,0.4-1c0.2-0.4,0.5-0.8,1-1.2c0.4-0.4,1-0.8,1.6-1.1c0.6-0.3,1.4-0.4,2.3-0.4
			h0.1v2.1h-0.3c-1.1,0-2,0.3-2.8,0.9s-1.4,1.3-1.8,2.3c-0.4,0.9-0.6,1.9-0.6,3v6.3L92.8,492.8L92.8,492.8z"/>
		<path d="M102.7,492.8v-14.3h2.1v2.2c0.3-0.6,0.8-1.1,1.5-1.6s1.6-0.8,2.8-0.8c1,0,1.8,0.3,2.7,0.8c0.8,0.5,1.4,1.2,1.9,2.1
			c0.2-0.3,0.5-0.7,0.9-1.2s1-0.9,1.6-1.2c0.7-0.3,1.5-0.5,2.4-0.5s1.8,0.2,2.6,0.7c0.8,0.5,1.5,1.2,2,2c0.5,0.9,0.8,1.9,0.8,3.1
			v8.7h-2.1v-8.6c0-1.2-0.3-2.2-1-2.9c-0.7-0.7-1.5-1.1-2.5-1.1c-1.1,0-2,0.4-2.7,1.1c-0.8,0.7-1.1,1.7-1.1,3v8.6h-2.2v-8.6
			c0-1.2-0.3-2.2-1-2.9c-0.7-0.7-1.5-1.1-2.5-1.1c-1.1,0-2,0.4-2.7,1.1c-0.8,0.7-1.1,1.7-1.1,3v8.6h-2.4V492.8z"/>
		<path d="M133.6,493c-1.4,0-2.6-0.3-3.7-1c-1-0.7-1.8-1.6-2.4-2.7s-0.9-2.4-0.9-3.7c0-1.4,0.3-2.6,0.9-3.7s1.4-2,2.4-2.7
			s2.3-1,3.7-1c1.2,0,2.2,0.2,3.1,0.7c0.8,0.5,1.5,1.1,2.1,1.9v-2.3h2.1v14.3h-2.1v-2.3c-0.5,0.8-1.2,1.4-2.1,1.8
			C135.8,492.8,134.8,493,133.6,493z M133.9,491c1.1,0,2-0.2,2.7-0.7s1.3-1.2,1.7-2s0.6-1.7,0.6-2.7s-0.2-1.9-0.6-2.7
			c-0.4-0.8-0.9-1.5-1.7-2c-0.7-0.5-1.6-0.7-2.7-0.7c-1.1,0-2,0.2-2.7,0.7c-0.8,0.5-1.3,1.2-1.7,2s-0.6,1.7-0.6,2.7s0.2,1.9,0.6,2.7
			c0.4,0.8,1,1.5,1.7,2C132,490.8,132.9,491,133.9,491z"/>
		<path d="M146.2,492.8v-12.4h-2.9v-1.9h2.9v-5.1h2.1v5.1h3.3v1.9h-3.3v12.4H146.2z"/>
		<path d="M153.9,476v-2.8h2.3v2.8H153.9z M154,492.8v-14.3h2.1v14.3H154z"/>
		<path d="M163.8,492.8l-5.6-14.3h2.4l4.5,12l4.5-12h2.4l-5.6,14.3H163.8z"/>
		<path d="M180,493c-1.5,0-2.7-0.3-3.8-1s-1.9-1.6-2.5-2.7s-0.9-2.4-0.9-3.7c0-1.4,0.3-2.6,0.9-3.7c0.6-1.1,1.4-2,2.5-2.7
			s2.3-1,3.8-1s2.7,0.3,3.8,1s1.9,1.5,2.5,2.7c0.6,1.1,0.9,2.4,0.9,3.7v0.9h-12c0.1,0.8,0.4,1.6,0.8,2.3s1,1.3,1.7,1.7
			c0.7,0.4,1.6,0.6,2.5,0.6c1,0,1.9-0.2,2.6-0.7c0.7-0.4,1.2-1,1.6-1.7h2.4c-0.5,1.3-1.3,2.3-2.4,3.1C183,492.6,181.7,493,180,493z
			 M174.9,484.4h9.7c-0.2-1.2-0.7-2.2-1.5-3.1c-0.8-0.8-1.9-1.2-3.3-1.2c-1.4,0-2.5,0.4-3.3,1.2
			C175.7,482.2,175.1,483.2,174.9,484.4z"/>
		<path d="M200.8,492.8v-16.9h-6.6v-2h15.4v2H203v16.9H200.8z"/>
		<path d="M209.9,492.8v-14.3h2.1v3.5c0.1-0.2,0.2-0.6,0.4-1s0.5-0.8,1-1.2c0.4-0.4,1-0.8,1.6-1.1c0.6-0.3,1.4-0.4,2.3-0.4h0.1v2.1
			h-0.3c-1.1,0-2,0.3-2.8,0.9s-1.4,1.3-1.8,2.3c-0.4,0.9-0.6,1.9-0.6,3v6.3L209.9,492.8L209.9,492.8z"/>
		<path d="M225.4,493c-1,0-1.9-0.2-2.8-0.7c-0.9-0.5-1.6-1.2-2.1-2.1s-0.8-2.1-0.8-3.4v-8.3h2.1v8.3c0,1.3,0.4,2.3,1.1,3.1
			c0.8,0.8,1.7,1.2,2.9,1.2c0.8,0,1.5-0.2,2.2-0.6c0.6-0.4,1.2-0.9,1.6-1.5c0.4-0.6,0.6-1.4,0.6-2.3v-8.3h2.2v14.3h-2.2v-2.2
			c-0.5,0.7-1.1,1.3-1.9,1.7C227.5,492.7,226.6,493,225.4,493z"/>
		<path d="M241.2,493c-1.3,0-2.4-0.2-3.3-0.7c-0.9-0.4-1.6-1-2.1-1.7s-0.7-1.5-0.8-2.3h2.2c0.1,0.5,0.2,0.9,0.5,1.4
			c0.3,0.4,0.7,0.8,1.3,1.1c0.6,0.3,1.3,0.4,2.2,0.4c0.3,0,0.6,0,1.1-0.1c0.4-0.1,0.8-0.2,1.2-0.3c0.4-0.2,0.7-0.4,1-0.7
			c0.3-0.3,0.4-0.7,0.4-1.2c0-0.6-0.2-1.1-0.7-1.4s-1.1-0.6-1.8-0.8c-0.7-0.2-1.5-0.4-2.3-0.5c-0.8-0.2-1.6-0.4-2.3-0.7
			c-0.7-0.3-1.3-0.7-1.8-1.2s-0.7-1.2-0.7-2.1c0-1.3,0.5-2.3,1.4-3s2.3-1.1,4.2-1.1c1.3,0,2.3,0.2,3.1,0.6s1.4,0.9,1.8,1.5
			c0.4,0.6,0.7,1.3,0.7,2h-2.2c-0.1-0.6-0.4-1.1-0.9-1.6c-0.5-0.4-1.4-0.7-2.6-0.7c-2.3,0-3.4,0.7-3.4,2.1c0,0.6,0.2,1,0.7,1.3
			s1.1,0.6,1.8,0.7c0.7,0.2,1.5,0.4,2.3,0.5c0.8,0.2,1.6,0.4,2.3,0.7c0.7,0.3,1.3,0.7,1.8,1.2s0.7,1.2,0.7,2.1
			c0,1.4-0.5,2.5-1.6,3.2C244.4,492.6,243,493,241.2,493z"/>
		<path d="M251.4,492.8v-12.4h-2.9v-1.9h2.9v-5.1h2.1v5.1h3.3v1.9h-3.3v12.4H251.4z"/>
		<path d="M262,492.8l-4.5-14.3h2.3l3.4,11.7l3.6-11.7h2.4l3.6,11.7l3.4-11.7h2.3l-4.5,14.3h-2.5l-3.6-11.4l-3.6,11.4H262z"/>
		<path d="M286.5,493c-1.5,0-2.7-0.3-3.8-1c-1.1-0.7-1.9-1.6-2.5-2.7s-0.9-2.4-0.9-3.7c0-1.4,0.3-2.6,0.9-3.7s1.4-2,2.5-2.7
			s2.3-1,3.8-1s2.7,0.3,3.8,1c1.1,0.7,1.9,1.5,2.5,2.7c0.6,1.1,0.9,2.4,0.9,3.7c0,1.4-0.3,2.6-0.9,3.7s-1.4,2-2.5,2.7
			C289.2,492.7,288,493,286.5,493z M286.5,491c1.1,0,2-0.2,2.7-0.7s1.3-1.2,1.7-2c0.4-0.8,0.6-1.7,0.6-2.7s-0.2-1.9-0.6-2.7
			c-0.4-0.8-0.9-1.5-1.7-2c-0.7-0.5-1.6-0.7-2.7-0.7s-1.9,0.2-2.7,0.7s-1.3,1.2-1.7,2c-0.4,0.8-0.6,1.7-0.6,2.7s0.2,1.9,0.6,2.7
			c0.4,0.8,0.9,1.5,1.7,2S285.4,491,286.5,491z"/>
		<path d="M296.4,492.8v-14.3h2.1v3.5c0.1-0.2,0.2-0.6,0.4-1c0.2-0.4,0.5-0.8,1-1.2c0.4-0.4,1-0.8,1.6-1.1c0.6-0.3,1.4-0.4,2.3-0.4
			h0.1v2.1h-0.3c-1.1,0-2,0.3-2.8,0.9s-1.4,1.3-1.8,2.3c-0.4,0.9-0.6,1.9-0.6,3v6.3L296.4,492.8L296.4,492.8z"/>
		<path d="M307.9,492.8v-12.4H305v-1.9h2.9v-5.1h2.1v5.1h3.3v1.9H310v12.4H307.9z"/>
		<path d="M315.7,492.8v-20.1h2.1v8c0.5-0.7,1.1-1.3,1.9-1.7c0.7-0.5,1.7-0.7,2.9-0.7c1,0,1.9,0.2,2.8,0.7s1.6,1.2,2.1,2.1
			s0.8,2.1,0.8,3.4v8.3h-2.1v-8.3c0-1.3-0.4-2.3-1.1-3.1c-0.7-0.8-1.7-1.2-2.9-1.2c-0.8,0-1.5,0.2-2.2,0.5c-0.6,0.4-1.2,0.9-1.6,1.5
			c-0.4,0.7-0.6,1.4-0.6,2.3v8.3L315.7,492.8L315.7,492.8z"/>
		<path d="M333,498.4l2.6-5.9l-5.8-14.1h2.4l4.6,11.8l4.7-11.8h2.4l-8.5,20H333z"/>
		<path d="M352.3,492.8v-19h14v2.1h-11.8v6.4H365v2.1h-10.5v6.4h11.8v2.1h-14V492.8z"/>
		<path d="M367.6,492.8l5.5-7.4l-5.2-6.9h2.8l3.7,5.4l3.7-5.4h2.8l-5.2,6.9l5.6,7.4h-2.8l-4-5.8l-4.1,5.8H367.6z"/>
		<path d="M383.1,498.4v-20h2.1v2.3c0.5-0.8,1.2-1.4,2.1-1.8c0.8-0.4,1.9-0.7,3.1-0.7c1.4,0,2.6,0.3,3.7,1c1,0.7,1.8,1.5,2.4,2.7
			c0.6,1.1,0.9,2.4,0.9,3.7c0,1.4-0.3,2.6-0.9,3.7s-1.4,2-2.4,2.7s-2.3,1-3.7,1c-1.2,0-2.2-0.2-3.1-0.7s-1.5-1.1-2.1-1.8v8h-2.1
			V498.4z M390.1,491c1.1,0,2-0.2,2.7-0.7c0.8-0.5,1.3-1.2,1.7-2c0.4-0.8,0.6-1.7,0.6-2.7s-0.2-1.9-0.6-2.7c-0.4-0.8-1-1.5-1.7-2
			c-0.8-0.5-1.7-0.7-2.7-0.7c-1.1,0-1.9,0.2-2.7,0.7s-1.3,1.2-1.7,2c-0.4,0.8-0.6,1.7-0.6,2.7s0.2,1.9,0.6,2.7
			c0.4,0.8,0.9,1.5,1.7,2S389.1,491,390.1,491z"/>
		<path d="M406.5,493c-1.5,0-2.7-0.3-3.8-1c-1.1-0.7-1.9-1.6-2.5-2.7s-0.9-2.4-0.9-3.7c0-1.4,0.3-2.6,0.9-3.7s1.4-2,2.5-2.7
			s2.3-1,3.8-1s2.7,0.3,3.8,1c1.1,0.7,1.9,1.5,2.5,2.7c0.6,1.1,0.9,2.4,0.9,3.7v0.9h-12c0.1,0.8,0.4,1.6,0.8,2.3
			c0.4,0.7,1,1.3,1.7,1.7c0.7,0.4,1.6,0.6,2.5,0.6c1,0,1.9-0.2,2.6-0.7c0.7-0.4,1.2-1,1.6-1.7h2.4c-0.5,1.3-1.3,2.3-2.4,3.1
			C409.6,492.6,408.2,493,406.5,493z M401.5,484.4h9.7c-0.2-1.2-0.7-2.2-1.5-3.1c-0.8-0.8-1.9-1.2-3.3-1.2s-2.5,0.4-3.3,1.2
			C402.2,482.2,401.7,483.2,401.5,484.4z"/>
		<path d="M416.1,492.8v-14.3h2.1v3.5c0.1-0.2,0.2-0.6,0.4-1c0.2-0.4,0.5-0.8,1-1.2c0.4-0.4,1-0.8,1.6-1.1c0.6-0.3,1.4-0.4,2.3-0.4
			h0.1v2.1h-0.3c-1.1,0-2,0.3-2.8,0.9s-1.4,1.3-1.8,2.3c-0.4,0.9-0.6,1.9-0.6,3v6.3L416.1,492.8L416.1,492.8z"/>
		<path d="M425.9,476v-2.8h2.3v2.8H425.9z M426,492.8v-14.3h2.1v14.3H426z"/>
		<path d="M438.3,493c-1.5,0-2.7-0.3-3.8-1c-1.1-0.7-1.9-1.6-2.5-2.7s-0.9-2.4-0.9-3.7c0-1.4,0.3-2.6,0.9-3.7s1.4-2,2.5-2.7
			s2.3-1,3.8-1s2.7,0.3,3.8,1c1.1,0.7,1.9,1.5,2.5,2.7c0.6,1.1,0.9,2.4,0.9,3.7v0.9h-12c0.1,0.8,0.4,1.6,0.8,2.3
			c0.4,0.7,1,1.3,1.7,1.7c0.7,0.4,1.6,0.6,2.5,0.6c1,0,1.9-0.2,2.6-0.7c0.7-0.4,1.2-1,1.6-1.7h2.4c-0.5,1.3-1.3,2.3-2.4,3.1
			C441.4,492.6,440,493,438.3,493z M433.2,484.4h9.7c-0.2-1.2-0.7-2.2-1.5-3.1c-0.8-0.8-1.9-1.2-3.3-1.2s-2.5,0.4-3.3,1.2
			C434,482.2,433.5,483.2,433.2,484.4z"/>
		<path d="M447.9,492.8v-14.3h2.1v2.2c0.5-0.7,1.1-1.3,1.9-1.7s1.7-0.7,2.9-0.7c1,0,1.9,0.2,2.8,0.7s1.6,1.2,2.1,2.1
			s0.8,2.1,0.8,3.4v8.3h-2.1v-8.3c0-1.3-0.4-2.3-1.1-3.1c-0.7-0.8-1.7-1.2-2.9-1.2c-0.8,0-1.5,0.2-2.2,0.5c-0.6,0.4-1.2,0.9-1.6,1.5
			c-0.4,0.7-0.6,1.4-0.6,2.3v8.3L447.9,492.8L447.9,492.8z"/>
		<path d="M470.3,493c-1.4,0-2.7-0.3-3.7-1c-1.1-0.7-1.9-1.6-2.5-2.7s-0.9-2.4-0.9-3.7c0-1.4,0.3-2.6,0.9-3.7s1.4-2,2.5-2.7
			s2.3-1,3.7-1c1.7,0,3.1,0.4,4.3,1.3c1.2,0.9,2,2,2.4,3.4h-2.3c-0.3-0.8-0.8-1.5-1.6-2c-0.7-0.5-1.6-0.8-2.6-0.8
			c-1.1,0-2,0.2-2.8,0.7s-1.4,1.2-1.8,2s-0.6,1.7-0.6,2.7s0.2,1.9,0.6,2.7c0.4,0.8,1,1.5,1.8,2s1.7,0.7,2.8,0.7c1,0,1.9-0.3,2.6-0.8
			s1.2-1.2,1.6-2h2.3c-0.4,1.4-1.2,2.5-2.4,3.4C473.4,492.5,472,493,470.3,493z"/>
		<path d="M486,493c-1.5,0-2.7-0.3-3.8-1c-1.1-0.7-1.9-1.6-2.5-2.7s-0.9-2.4-0.9-3.7c0-1.4,0.3-2.6,0.9-3.7s1.4-2,2.5-2.7
			s2.3-1,3.8-1s2.7,0.3,3.8,1c1.1,0.7,1.9,1.5,2.5,2.7c0.6,1.1,0.9,2.4,0.9,3.7v0.9h-12c0.1,0.8,0.4,1.6,0.8,2.3
			c0.4,0.7,1,1.3,1.7,1.7c0.7,0.4,1.6,0.6,2.5,0.6c1,0,1.9-0.2,2.6-0.7c0.7-0.4,1.2-1,1.6-1.7h2.4c-0.5,1.3-1.3,2.3-2.4,3.1
			C489.1,492.6,487.7,493,486,493z M481,484.4h9.7c-0.2-1.2-0.7-2.2-1.5-3.1c-0.8-0.8-1.9-1.2-3.3-1.2s-2.5,0.4-3.3,1.2
			C481.8,482.2,481.2,483.2,481,484.4z"/>
		<path d="M501.7,493c-1.4,0-2.6-0.3-3.7-1c-1-0.7-1.8-1.6-2.4-2.7s-0.9-2.4-0.9-3.7c0-1.4,0.3-2.6,0.9-3.7s1.4-2,2.4-2.7
			s2.3-1,3.7-1c1.2,0,2.2,0.2,3.1,0.7s1.5,1.1,2.1,1.9v-8.1h2.2v20.1h-2.2v-2.3c-0.5,0.8-1.2,1.4-2.1,1.8
			C503.9,492.8,502.9,493,501.7,493z M502,491c1.1,0,2-0.2,2.7-0.7s1.3-1.2,1.7-2c0.4-0.8,0.6-1.7,0.6-2.7s-0.2-1.9-0.6-2.7
			c-0.4-0.8-0.9-1.5-1.7-2c-0.7-0.5-1.6-0.7-2.7-0.7s-2,0.2-2.7,0.7c-0.8,0.5-1.3,1.2-1.7,2c-0.4,0.8-0.6,1.7-0.6,2.7
			s0.2,1.9,0.6,2.7c0.4,0.8,1,1.5,1.7,2S500.9,491,502,491z"/>
	</g>
</g>
</svg>
